<svg xmlns="http://www.w3.org/2000/svg" xmlns:xlink="http://www.w3.org/1999/xlink" width="1020px" height="560px" viewBox="0 0 1020 560" preserveAspectRatio="xMidYMid meet" ><rect id="svgEditorBackground" x="0" y="0" width="1020" height="560" style="fill: none; stroke: none;"/><g id="e5_group" transform="matrix(1.15815 0 0 1.15815 -117.843 -52.4233)"><text style="fill:black;font-family:Arial;font-size:20px;" x="299.12933349609375" y="266.889892578125" id="e2_texte" transform="matrix(10.2877 0 0 10.2877 -2942.72 -2403.67)">P</text><text style="fill:black;font-family:Arial;font-size:20px;" x="317.5652770996094" y="271.049560546875" id="e3_texte" transform="matrix(9.8727 2.89254 -2.89254 9.8727 -2131.05 -3280.92)">U</text><text style="fill:black;font-family:Arial;font-size:20px;" x="325.1063537597656" y="275.199951171875" id="e4_texte" transform="matrix(9.98315 2.48471 -2.48471 9.98315 -2224.41 -3218.38)">E</text><text style="fill:black;font-family:Arial;font-size:20px;" x="327.6753234863281" y="253.75868225097656" id="e5_texte" transform="matrix(9.8783 -2.87338 2.87338 9.8783 -3454.83 -1201.1)">R</text><text style="fill:black;font-family:Arial;font-size:20px;" x="359.52130126953125" y="274.54736328125" id="e6_texte" transform="matrix(8.97088 5.03591 -5.03591 8.97088 -1233.43 -3927.44)">I</text><text style="fill:black;font-family:Arial;font-size:20px;" x="353.7274475097656" y="268.8597412109375" id="e7_texte" transform="matrix(10.2877 0 0 10.2877 -2942.72 -2403.67)">L</text><text style="font-family: Arial; font-size: 20px;fill:black;" x="367.5721130371094" y="272.8932189941406" id="e8_texte" transform="matrix(9.71629 3.38094 -3.38094 9.71629 -1889.44 -3562.85)">E</text></g><line id="e6_line" x1="57.005699157714844" y1="173.51898095287547" x2="39.00550079345703" y2="162.0179891315864" style="stroke:black;fill:none;stroke-width:1px;"/><line id="e7_line" x1="38.75531005859375" y1="161.51832580566406" x2="39.75532150268555" y2="311.52044677734375" style="stroke:black;fill:none;stroke-width:1px;"/><line id="e2_line" x1="204.0077209472656" y1="153.51882934570312" x2="186.00752258300778" y2="142.01783752441406" style="stroke:black;fill:none;stroke-width:1px;"/></svg>