<svg xmlns="http://www.w3.org/2000/svg" xmlns:xlink="http://www.w3.org/1999/xlink" width="870px" height="540px" viewBox="0 0 870 540" preserveAspectRatio="xMidYMid meet" ><rect id="svgEditorBackground" x="0" y="0" width="870" height="540" style="fill: none; stroke: none;"/><defs id="svgEditorDefs"><linearGradient gradientUnits="objectBoundingBox" id="lgrd2-black-white" spreadMethod="pad" x1="0%" x2="100%" y1="0%" y2="100%"><stop offset="0%" stop-color="black"/><stop offset="100%" stop-color="white"/></linearGradient></defs><rect x="244.0120056759" y="137.0200024408" style="stroke: black; stroke-width: 1px;fill:rgb(220,50,78);" id="e1_rectangle" width="218" height="117" rx="5" ry="5"/><rect x="224.0120086669922" y="282.0199890136719" style="fill:rgb(220,50,78);stroke:black;stroke-width:1px;" id="e2_rectangle" width="243" height="20" rx="5" ry="5"/><rect x="252.91221618652355" y="224.32640075684245" style="fill:#EDEDED;stroke:black;stroke-width:1px;" id="e3_rectangle" width="30" height="69" rx="9" ry="9" transform="matrix(0.364644 0.230788 -0.458641 0.724651 264.469 16.8518)"/><circle id="e4_circle" cx="237.0120086669922" cy="321.0199890136719" style="fill:#EDEDED;stroke:black;stroke-width:1px;" r="15.5241746963"/><circle id="e1_circle" cx="448.01202392578125" cy="322.0199890136719" style="fill:#EDEDED;stroke:black;stroke-width:1px;" r="15.5241746963"/><rect x="87.60135650634777" y="70.46784973145179" style="fill:#EDEDED;stroke:black;stroke-width:1px;" id="e4_rectangle" width="30" height="69" rx="9" ry="9" transform="matrix(0.289627 -0.283081 0.562563 0.57557 155.925 107.219)"/><rect x="90.67063903807582" y="11.338990211482809" style="fill:#EDEDED;stroke:black;stroke-width:1px;" id="e14_rectangle" width="30" height="69" rx="9" ry="9" transform="matrix(-0.01017 -0.404864 0.80458 -0.020212 168.408 165.225)"/><circle id="e5_circle" cx="152.01200866698906" cy="39.020004272465115" style="fill:rgb(240,230,140);stroke:black;stroke-width:1px;" r="21.4709105536"/><path d="M137.512008667,54.0200042725c-15.1728223705,17.900012885799995,-14.299738566396869,45.644253320695825,-10.49999999999686,63.99999999999581c10.799738566300007,31.355746679200024,18.141678460299985,39.64901640009998,30.499999999999986,61.00000000000003c15.358321539596858,25.85098359990417,19.187503415400016,28.065312038999963,48.99999999999994,47.99999999999997c13.312496584596914,10.434687961004187,20.912216424196913,38.554062376704195,22.24999999999696,48.1249847412042" style="stroke:black;fill:none;stroke-width:1px;" id="e18_curve3"/><line id="e20_line" x1="125.006" y1="92.01" x2="176.50600283795157" y2="119.01000122039791" style="stroke:black;fill:none;stroke-width:1px;"/><line id="e2_line" x1="125.256" y1="89.01" x2="178.00599670410156" y2="117.51000213623047" style="stroke:black;fill:none;stroke-width:1px;"/><path d="M184.262008667,211.7700042725c24.30323925939996,1.680479343400009,31.514181699599987,5.443302827100013,36.49999999999997,11c2.235818300300025,4.3066971728,5.075292457800032,9.13221255100001,6.750000000000028,15.25c3.6747075421000375,12.867787448900032,4.035325561000008,22.95735636080002,4.624999999999972,32.124984741200024" style="stroke:black;fill:none;stroke-width:1px;" id="e22_curve3"/></svg>